<?xml version="1.0" encoding="UTF-8"?>
<!DOCTYPE svg PUBLIC "-//W3C//DTD SVG 1.1//EN" "http://www.w3.org/Graphics/SVG/1.1/DTD/svg11.dtd">
<svg xmlns="http://www.w3.org/2000/svg" version="1.1" width="165px" height="158px" style="shape-rendering:geometricPrecision; text-rendering:geometricPrecision; image-rendering:optimizeQuality; fill-rule:evenodd; clip-rule:evenodd" xmlns:xlink="http://www.w3.org/1999/xlink">
<g><path style="opacity:0.948" fill="#343434" d="M 50.5,12.5 C 55.5805,12.2497 60.5805,12.7497 65.5,14C 71.0119,19.5892 77.6786,22.7559 85.5,23.5C 88.567,23.3934 91.567,22.8934 94.5,22C 98.2171,18.6153 102.217,15.6153 106.5,13C 124.255,10.4214 131.422,17.9214 128,35.5C 126.833,39.3333 124.333,41.8333 120.5,43C 110.689,46.7497 102.689,44.4164 96.5,36C 85.4011,31.173 75.7345,33.173 67.5,42C 49.1882,46.5003 42.1882,58.0003 46.5,76.5C 42.0923,94.9286 49.0923,106.429 67.5,111C 73.7014,119.214 81.7014,121.881 91.5,119C 96.8129,115.698 102.146,112.365 107.5,109C 119.722,106.602 127.055,111.435 129.5,123.5C 128.326,137.771 120.659,143.271 106.5,140C 102.167,137 97.8333,134 93.5,131C 82.6323,127.401 73.6323,130.067 66.5,139C 50.977,144.402 42.3103,138.902 40.5,122.5C 44.5168,104.724 37.5168,93.8906 19.5,90C 11.9429,81.5664 11.6096,72.8997 18.5,64C 22.682,60.91 27.3487,58.91 32.5,58C 38.034,53.4328 41.3674,47.5995 42.5,40.5C 37.7717,28.8612 40.4384,19.5278 50.5,12.5 Z"/></g>
<g><path style="opacity:0.951" fill="#ff9934" d="M 78.5,60.5 C 88.5427,59.1887 96.876,62.3554 103.5,70C 109.843,71.9353 116.177,71.9353 122.5,70C 126.217,66.6153 130.217,63.6153 134.5,61C 148.676,58.347 156.342,64.1803 157.5,78.5C 154.358,90.7369 146.692,95.2369 134.5,92C 130.167,89 125.833,86 121.5,83C 115.024,80.8012 108.691,81.1345 102.5,84C 99.1667,86.6667 95.8333,89.3333 92.5,92C 78.6185,95.4479 70.6185,90.1145 68.5,76C 68.7261,72.9883 69.5594,70.155 71,67.5C 73.3959,64.9334 75.8959,62.6 78.5,60.5 Z"/></g>
</svg>
